{"title":"A Flying Jatt 2016 Movies DVDScr XviD New Source +Sample ~ ☻rDX☻","uid":15662964,"size":740037907,"categoryP":"video","categoryS":"movies","magnet":"?xt=urn:btih:67702d986f8e5e5a933fdbd1b3fc8f5a0adf7b53&amp;dn=A+Flying+Jatt+2016+Movies+DVDScr+XviD+New+Source+%2BSample+%7E+%E2%98%BBrDX%E2%98%BB&amp;tr=udp%3A%2F%2Ftracker.leechers-paradise.org%3A6969&amp;tr=udp%3A%2F%2Fzer0day.ch%3A1337&amp;tr=udp%3A%2F%2Fopen.demonii.com%3A1337&amp;tr=udp%3A%2F%2Ftracker.coppersurfer.tk%3A6969&amp;tr=udp%3A%2F%2Fexodus.desync.com%3A6969","seeders":3,"leechers":1,"uploader":"basicssom","files":2,"time":1472190222,"description":"----------------------------------------------------------------\r\nA Flying Jatt 2016 Hindi Movies DVDScr XviD AAC New Source with Sample ☻rDX☻\r\n\r\nSCREEN SHOTS &amp; POSTER:\r\n  \nhttp://postimage.co.nr/2016/8/data/index.htm  \nhttp://postimage.co.nr/2016/8/data/1.html  \nhttp://postimage.co.nr/2016/8/data/2.html  \nhttp://postimage.co.nr/2016/8/data/3.html  \nhttp://postimage.co.nr/2016/8/data/4.html  \nhttp://postimage.co.nr/2016/8/data/5.html  \nhttp://postimage.co.nr/2016/8/data/6.html  \nhttp://postimage.co.nr/2016/8/data/7.html  \nhttp://postimage.co.nr/2016/8/data/8.html  \nhttp://postimage.co.nr/2016/8/data/9.html  \nhttp://postimage.co.nr/2016/8/data/10.html\r\n\r\nFormat                                   : Matroska\r\nFormat version                           : Version 4 / Version 2\r\nFile size                                : 698 MiB\r\nDuration                                 : 2 h 27 min\r\nOverall bit rate                         : 660 kb/s\r\nMovie name                               : A Flying Jatt 2016 Hindi Movies DVDScr XviD AAC New Source ☻rDX☻\r\n\r\nVideo\r\nID                                       : 1\r\nFormat                                   : MPEG-4 Visual\r\nFormat profile                           : Advanced   \r\nFormat settings, BVOP                    : 2\r\nFormat settings, QPel                    : No\r\nFormat settings, GMC                     : No warppoints\r\nFormat settings, Matrix                  : Default (H.263)\r\nCodec ID                                 : V_MS/VFW/FOURCC / XVID\r\nCodec ID/Hint                            : XviD\r\nDuration                                 : 2 h 27 min\r\nBit rate                                 : 567 kb/s\r\nWidth                                    : 688 pixels\r\nHeight                                   : 272 pixels\r\nDisplay aspect ratio                     : 2.529\r\nFrame rate mode                          : Constant\r\nFrame rate                               : 29.970 (29970/1000) FPS\r\nOriginal frame rate                      : 29.970 (30000/1001) FPS\r\nColor space                              : YUV\r\nChroma subsampling                       : 4:2:0\r\nBit depth                                : 8 bits\r\nScan type                                : Progressive\r\nCompression mode                         : Lossy\r\nBits/(Pixel*Frame)                       : 0.101\r\nStream size                              : 600 MiB (86%)\r\nTitle                                    : ☻rDX☻\r\nWriting library                          : XviD 67\r\nDefault                                  : Yes\r\nForced                                   : No\r\n\r\nAudio\r\nID                                       : 2\r\nFormat                                   : MPEG Audio\r\nFormat version                           : Version 1\r\nFormat profile                           : Layer 3\r\nMode                                     : Joint stereo\r\nMode extension                           : MS Stereo\r\nCodec ID                                 : A_MPEG/L3\r\nCodec ID/Hint                            : MP3\r\nDuration                                 : 1 h 10 min\r\nBit rate mode                            : Constant\r\nBit rate                                 : 80.0 kb/s\r\nChannel(s)                               : 2 channels\r\nSampling rate                            : 32.0 kHz\r\nCompression mode                         : Lossy\r\nStream size                              : 40.5 MiB (6%)\r\nTitle                                    : ☻rDX☻\r\nWriting library                          : LAME3.99r\r\nEncoding settings                        : -m j -V 4 -q 2 -lowpass 13.5 -b 80\r\nDefault                                  : Yes\r\nForced                                   : No\r\n\r\nIMDB \nhttp://www.imdb.com/title/tt5235880/","torrent":{"xt":"urn:btih:67702d986f8e5e5a933fdbd1b3fc8f5a0adf7b53","amp;dn":"A+Flying+Jatt+2016+Movies+DVDScr+XviD+New+Source+%2BSample+%7E+%E2%98%BBrDX%E2%98%BB","amp;tr":["udp%3A%2F%2Ftracker.leechers-paradise.org%3A6969","udp%3A%2F%2Fzer0day.ch%3A1337","udp%3A%2F%2Fopen.demonii.com%3A1337","udp%3A%2F%2Ftracker.coppersurfer.tk%3A6969","udp%3A%2F%2Fexodus.desync.com%3A6969"],"infoHash":"67702d986f8e5e5a933fdbd1b3fc8f5a0adf7b53","infoHashBuffer":{"type":"Buffer","data":[103,112,45,152,111,142,94,90,147,63,219,209,179,252,143,90,10,223,123,83]},"announce":[],"urlList":[]}}